<svg xmlns="http://www.w3.org/2000/svg" xmlns:xlink="http://www.w3.org/1999/xlink" width="377" zoomAndPan="magnify" viewBox="0 0 282.75 282.749989" height="377" preserveAspectRatio="xMidYMid meet" version="1.0"><defs><clipPath id="1d74e99d50"><path d="M 0 0 L 282.5 0 L 282.5 282.5 L 0 282.5 Z M 0 0 " clip-rule="nonzero"/></clipPath><clipPath id="a457335e02"><path d="M 0 0 L 282.289062 0 L 282.289062 282.289062 L 0 282.289062 Z M 0 0 " clip-rule="nonzero"/></clipPath><clipPath id="355c4ef898"><path d="M 141.144531 0 C 63.191406 0 0 63.191406 0 141.144531 C 0 219.09375 63.191406 282.289062 141.144531 282.289062 C 219.09375 282.289062 282.289062 219.09375 282.289062 141.144531 C 282.289062 63.191406 219.09375 0 141.144531 0 Z M 141.144531 0 " clip-rule="nonzero"/></clipPath><clipPath id="53a2befa04"><path d="M 0 0 L 282.289062 0 L 282.289062 282.289062 L 0 282.289062 Z M 0 0 " clip-rule="nonzero"/></clipPath><clipPath id="eda599d407"><path d="M 141.144531 0 C 63.191406 0 0 63.191406 0 141.144531 C 0 219.09375 63.191406 282.289062 141.144531 282.289062 C 219.09375 282.289062 282.289062 219.09375 282.289062 141.144531 C 282.289062 63.191406 219.09375 0 141.144531 0 Z M 141.144531 0 " clip-rule="nonzero"/></clipPath><clipPath id="1d32351945"><rect x="0" width="283" y="0" height="283"/></clipPath><clipPath id="b4aba17f40"><path d="M 225 86.609375 L 263.710938 86.609375 L 263.710938 162 L 225 162 Z M 225 86.609375 " clip-rule="nonzero"/></clipPath><clipPath id="007f1838e4"><path d="M 18.675781 89 L 58 89 L 58 165 L 18.675781 165 Z M 18.675781 89 " clip-rule="nonzero"/></clipPath><clipPath id="b3a7340084"><rect x="0" width="283" y="0" height="283"/></clipPath></defs><g clip-path="url(#1d74e99d50)"><g><g clip-path="url(#b3a7340084)"><g clip-path="url(#a457335e02)"><g clip-path="url(#355c4ef898)"><g><g clip-path="url(#1d32351945)"><g clip-path="url(#53a2befa04)"><g clip-path="url(#eda599d407)"><path fill="#593c8f" d="M 0 0 L 282.289062 0 L 282.289062 282.289062 L 0 282.289062 Z M 0 0 " fill-opacity="1" fill-rule="nonzero"/></g></g></g></g></g></g><path fill="#ffffff" d="M 166.878906 203.121094 L 140.039062 186.175781 C 139.980469 186.128906 139.929688 186.070312 139.871094 186.027344 C 137.011719 183.800781 133.566406 182.734375 130 183.164062 C 129.785156 183.1875 129.589844 183.234375 129.386719 183.269531 C 129.105469 179.527344 127.402344 175.902344 124.355469 173.417969 C 121.554688 171.128906 118.050781 170.117188 114.484375 170.554688 C 114.359375 170.574219 114.242188 170.605469 114.117188 170.625 C 113.960938 166.707031 112.226562 162.875 109.050781 160.285156 C 106.246094 157.992188 102.746094 156.980469 99.179688 157.425781 C 95.570312 157.878906 92.367188 159.761719 90.167969 162.738281 L 88.761719 164.648438 C 88.410156 165.128906 87.683594 165.058594 87.414062 164.53125 C 86.574219 162.90625 85.414062 161.433594 83.9375 160.234375 C 81.132812 157.941406 77.621094 156.925781 74.066406 157.371094 C 70.457031 157.824219 67.253906 159.710938 65.054688 162.6875 L 60.4375 168.925781 L 59.316406 169.082031 C 56.371094 166.832031 53.34375 164.550781 49.8125 163 C 49.246094 162.753906 48.941406 162.128906 49.089844 161.535156 L 63.359375 103.007812 C 63.4375 102.675781 63.644531 102.394531 63.9375 102.21875 C 64.230469 102.039062 64.574219 101.988281 64.90625 102.070312 C 70.972656 103.554688 78.269531 104.394531 85.878906 104.394531 C 96.789062 104.394531 108.335938 102.671875 117.746094 98.648438 C 127.441406 94.503906 132.859375 92.4375 138.328125 92.144531 C 139.175781 92.097656 139.511719 93.203125 138.777344 93.628906 C 130.242188 98.558594 120.878906 105.613281 117.445312 113.089844 C 117.433594 113.121094 117.417969 113.160156 117.398438 113.195312 C 117.398438 113.199219 117.390625 113.214844 117.382812 113.21875 C 117.367188 113.25 117.359375 113.289062 117.34375 113.328125 C 117.316406 113.386719 117.292969 113.4375 117.273438 113.5 L 108.914062 137.457031 C 108.128906 139.707031 108.28125 142.21875 109.347656 144.347656 C 110.386719 146.441406 112.164062 147.984375 114.355469 148.683594 C 119.21875 150.238281 128.550781 151.375 136.378906 141.414062 C 136.410156 141.371094 136.445312 141.332031 136.472656 141.285156 C 139.871094 136.554688 142.328125 132.460938 143.800781 130.019531 C 144.003906 129.675781 144.195312 129.355469 144.367188 129.074219 C 144.503906 128.859375 144.730469 128.71875 144.980469 128.695312 L 153.855469 127.945312 C 154.15625 127.917969 154.457031 128.003906 154.730469 128.199219 L 204.984375 164.082031 L 207.128906 165.613281 C 215.304688 171.699219 205.246094 183.210938 197.023438 176.988281 C 196.347656 176.515625 193.464844 174.515625 192.734375 173.996094 C 181.09375 165.898438 163.429688 153.5625 163.183594 153.394531 C 161.582031 152.300781 159.40625 152.675781 158.300781 154.265625 C 157.1875 155.855469 157.5625 158.066406 159.167969 159.148438 C 159.40625 159.304688 176.394531 171.175781 188.042969 179.28125 C 188.777344 179.800781 189.488281 180.292969 190.179688 180.773438 C 196.074219 185.222656 188.359375 195.625 181.269531 190.8125 L 179.144531 189.316406 L 151.394531 169.792969 C 149.8125 168.679688 147.628906 169.070312 146.511719 170.648438 C 145.394531 172.230469 145.777344 174.421875 147.363281 175.53125 L 174.460938 194.605469 C 180.296875 198.75 173.503906 207.328125 166.898438 203.117188 Z M 166.878906 203.121094 " fill-opacity="1" fill-rule="nonzero"/><path fill="#ffffff" d="M 154.492188 210.449219 C 155.386719 209.21875 155.730469 207.738281 155.464844 206.265625 C 155.1875 204.757812 154.308594 203.449219 152.976562 202.574219 L 144.160156 196.777344 C 144.191406 199.640625 143.34375 202.523438 141.550781 204.953125 L 139.511719 207.714844 L 146.757812 212.480469 C 149.445312 213.609375 152.777344 212.800781 154.496094 210.449219 Z M 154.492188 210.449219 " fill-opacity="1" fill-rule="nonzero"/><g clip-path="url(#b4aba17f40)"><path fill="#ffffff" d="M 246.835938 87.761719 L 263.34375 156.257812 C 263.488281 156.851562 263.121094 157.449219 262.527344 157.589844 L 245.160156 161.777344 C 243.019531 162.292969 240.859375 160.972656 240.34375 158.832031 L 225.191406 95.949219 C 224.675781 93.808594 225.992188 91.652344 228.132812 91.136719 L 245.503906 86.949219 C 246.097656 86.804688 246.695312 87.171875 246.835938 87.765625 Z M 246.835938 87.761719 " fill-opacity="1" fill-rule="nonzero"/></g><path fill="#ffffff" d="M 79.355469 165.625 C 78.246094 164.722656 76.917969 164.25 75.535156 164.25 C 75.289062 164.25 75.039062 164.265625 74.785156 164.296875 C 73.101562 164.511719 71.597656 165.40625 70.542969 166.820312 L 62.234375 178.0625 C 60.03125 181.039062 60.550781 185.503906 63.371094 187.808594 C 64.671875 188.875 66.292969 189.347656 67.933594 189.140625 C 69.617188 188.929688 71.121094 188.035156 72.175781 186.617188 L 80.484375 175.378906 C 82.6875 172.402344 82.167969 167.9375 79.347656 165.632812 Z M 79.355469 165.625 " fill-opacity="1" fill-rule="nonzero"/><path fill="#ffffff" d="M 183.355469 96.269531 C 172.882812 94.09375 162.996094 92.035156 155.179688 93.628906 C 150.25 94.636719 128.316406 105.871094 123.679688 115.960938 L 115.382812 139.730469 C 115.15625 140.382812 115.339844 140.921875 115.472656 141.183594 C 115.585938 141.40625 115.847656 141.804688 116.34375 141.96875 C 121.886719 143.746094 126.699219 142.113281 130.664062 137.097656 C 133.875 132.621094 136.226562 128.710938 137.632812 126.367188 C 138.203125 125.421875 138.617188 124.734375 138.921875 124.28125 C 139.898438 122.828125 141.449219 121.910156 143.175781 121.765625 L 153.105469 120.921875 C 155.070312 120.753906 157.046875 121.300781 158.660156 122.46875 L 211.175781 159.96875 C 211.246094 160.015625 211.316406 160.070312 211.382812 160.125 C 212.886719 161.375 214.050781 162.703125 214.964844 163.996094 C 215.417969 164.640625 216.144531 165.039062 216.929688 165.074219 C 222.855469 165.351562 226.257812 163.695312 231.429688 161.175781 C 231.835938 160.980469 232.261719 160.773438 232.703125 160.558594 C 233.246094 160.296875 233.527344 159.695312 233.382812 159.109375 L 218.886719 99.644531 C 218.71875 98.960938 218.03125 98.542969 217.34375 98.707031 C 207.027344 101.203125 195.023438 98.710938 183.355469 96.28125 Z M 183.355469 96.269531 " fill-opacity="1" fill-rule="nonzero"/><path fill="#ffffff" d="M 121.40625 187.75 C 122.992188 184.816406 122.34375 180.914062 119.765625 178.8125 C 118.660156 177.90625 117.332031 177.433594 115.957031 177.433594 C 115.707031 177.433594 115.457031 177.449219 115.203125 177.484375 C 113.519531 177.695312 112.015625 178.589844 110.960938 180.007812 L 97.734375 197.898438 C 95.53125 200.875 96.050781 205.339844 98.871094 207.644531 C 100.171875 208.710938 101.792969 209.179688 103.433594 208.976562 C 105.117188 208.765625 106.621094 207.871094 107.675781 206.457031 L 110.855469 202.160156 C 111.136719 201.660156 111.433594 201.175781 111.777344 200.707031 L 120.84375 188.445312 C 121.023438 188.203125 121.21875 187.980469 121.410156 187.753906 Z M 121.40625 187.75 " fill-opacity="1" fill-rule="nonzero"/><path fill="#ffffff" d="M 104.46875 165.679688 C 103.363281 164.777344 102.035156 164.304688 100.652344 164.304688 C 100.40625 164.304688 100.152344 164.316406 99.902344 164.351562 C 98.21875 164.566406 96.710938 165.460938 95.660156 166.875 L 77.992188 190.773438 C 75.789062 193.75 76.308594 198.214844 79.128906 200.519531 C 80.429688 201.585938 82.050781 202.058594 83.691406 201.851562 C 85.375 201.640625 86.878906 200.746094 87.929688 199.328125 L 105.601562 175.433594 C 107.800781 172.457031 107.285156 167.992188 104.464844 165.6875 Z M 104.46875 165.679688 " fill-opacity="1" fill-rule="nonzero"/><path fill="#ffffff" d="M 135.289062 191.417969 C 134.183594 190.515625 132.851562 190.039062 131.472656 190.039062 C 131.222656 190.039062 130.972656 190.054688 130.71875 190.085938 C 129.332031 190.257812 128.074219 190.90625 127.085938 191.914062 C 126.914062 192.1875 126.738281 192.460938 126.542969 192.726562 L 116.773438 205.9375 C 115.363281 208.835938 116.050781 212.574219 118.546875 214.617188 C 119.851562 215.683594 121.472656 216.152344 123.109375 215.949219 C 124.792969 215.738281 126.300781 214.84375 127.347656 213.425781 L 136.414062 201.167969 C 138.617188 198.1875 138.097656 193.726562 135.277344 191.417969 Z M 135.289062 191.417969 " fill-opacity="1" fill-rule="nonzero"/><g clip-path="url(#007f1838e4)"><path fill="#ffffff" d="M 57.101562 98.105469 L 41.949219 160.992188 C 41.433594 163.132812 39.273438 164.449219 37.132812 163.933594 L 19.765625 159.75 C 19.171875 159.605469 18.804688 159.007812 18.949219 158.414062 L 35.457031 89.917969 C 35.601562 89.324219 36.195312 88.957031 36.792969 89.101562 L 54.160156 93.289062 C 56.300781 93.804688 57.621094 95.960938 57.105469 98.101562 Z M 57.101562 98.105469 " fill-opacity="1" fill-rule="nonzero"/></g></g></g></g></svg>